<svg width="818" height="268" viewBox="0 0 818 268" fill="none" xmlns="http://www.w3.org/2000/svg">
<path d="M334.41 102.853L318.872 97.3754C313.134 95.2888 309.036 92.457 306.576 88.88C304.117 85.3031 302.888 80.6083 302.888 74.7957C302.888 66.3004 304.937 60.6369 309.036 57.8051C313.209 54.8988 320.512 53.4456 330.945 53.4456C340.781 53.4456 349.239 54.4517 356.319 56.4637L355.201 68.0889C348.718 67.8653 340.669 67.7535 331.056 67.7535C326.585 67.7535 323.604 68.1634 322.114 68.9831C320.624 69.7283 319.878 71.6659 319.878 74.7957C319.878 77.3294 320.437 79.1552 321.555 80.273C322.673 81.3908 324.797 82.4713 327.927 83.5146L342.57 88.5447C348.531 90.6313 352.742 93.5003 355.201 97.1518C357.66 100.729 358.89 105.424 358.89 111.236C358.89 119.88 356.803 125.768 352.63 128.897C348.457 131.953 341.005 133.48 330.274 133.48C321.555 133.48 312.724 132.512 303.782 130.574L304.788 118.278C320.661 118.651 329.156 118.837 330.274 118.837C334.82 118.837 337.838 118.353 339.328 117.384C340.893 116.415 341.675 114.403 341.675 111.348C341.675 108.74 341.154 106.914 340.111 105.871C339.067 104.753 337.167 103.747 334.41 102.853ZM370.407 52.5514H377.784C380.989 52.5514 382.591 54.1536 382.591 57.358V63.3941C382.591 66.5985 380.989 68.2007 377.784 68.2007H370.407C367.202 68.2007 365.6 66.5985 365.6 63.3941V57.358C365.6 54.1536 367.202 52.5514 370.407 52.5514ZM382.367 132.027H365.936V76.9195H382.367V132.027ZM405.1 76.9195L406.218 84.9677C413.222 78.559 420.227 75.3546 427.232 75.3546C434.684 75.3546 439.416 78.3354 441.428 84.2971C447.912 78.3354 454.618 75.3546 461.549 75.3546C466.542 75.3546 470.342 76.6587 472.95 79.2669C475.559 81.8751 476.863 85.6757 476.863 90.6685V132.027H460.431V95.8104C460.431 93.4258 460.021 91.7491 459.201 90.7803C458.382 89.8116 456.854 89.3272 454.618 89.3272C452.83 89.3272 451.116 89.6625 449.477 90.3332C447.837 91.0039 445.452 92.308 442.323 94.2455V132.027H426.45V95.8104C426.45 93.4258 425.965 91.7491 424.997 90.7803C424.102 89.8116 422.612 89.3272 420.525 89.3272C417.619 89.3272 413.558 90.9294 408.341 94.1337V132.027H391.91V76.9195H405.1ZM498.987 76.9195L500.217 84.9677C502.527 82.2105 505.694 79.9376 509.718 78.1491C513.816 76.3606 517.952 75.4664 522.125 75.4664C534.794 75.4664 541.128 85.3031 541.128 104.976C541.128 115.558 539.414 122.973 535.986 127.221C532.633 131.394 527.342 133.48 520.113 133.48C512.661 133.48 506.513 131.692 501.67 128.115C502.042 131.916 502.154 135.865 502.005 139.964V153.266H485.573V76.9195H498.987ZM502.005 93.6866V118.949C507.818 120.439 511.991 121.185 514.524 121.185C518.176 121.185 520.672 120.141 522.014 118.055C523.43 115.968 524.138 111.609 524.138 104.976C524.138 98.4932 523.504 94.1337 522.237 91.8981C520.97 89.588 518.735 88.4329 515.53 88.4329C511.879 88.4329 507.37 90.1842 502.005 93.6866ZM564.67 53.781V114.031C564.67 117.757 566.757 119.62 570.93 119.62H575.401L577.301 131.133C574.469 132.623 570.073 133.369 564.111 133.369C559.193 133.369 555.318 132.065 552.486 129.456C549.654 126.774 548.238 123.01 548.238 118.167V53.781H564.67ZM615.323 110.007H595.426C595.948 114.031 597.14 116.751 599.003 118.167C600.941 119.508 604.108 120.179 608.505 120.179C614.392 120.179 621.248 119.769 629.072 118.949L630.637 129.233C624.899 131.99 616.888 133.369 606.604 133.369C596.246 133.369 588.869 131.133 584.472 126.662C580.075 122.191 577.877 114.813 577.877 104.529C577.877 93.7239 580.001 86.1601 584.248 81.8379C588.571 77.5157 595.799 75.3546 605.934 75.3546C615.1 75.3546 621.732 76.9568 625.831 80.1612C629.929 83.291 632.016 88.0976 632.09 94.5809C632.09 99.7228 630.749 103.598 628.066 106.206C625.458 108.74 621.21 110.007 615.323 110.007ZM595.091 100.058H610.74C612.752 100.058 614.094 99.5737 614.764 98.6049C615.51 97.6362 615.882 96.2203 615.882 94.3573C615.882 91.7491 615.212 89.9606 613.87 88.9918C612.529 87.9485 610.07 87.4269 606.493 87.4269C602.245 87.4269 599.339 88.2839 597.774 89.9979C596.209 91.6373 595.315 94.9907 595.091 100.058Z" fill="#041B34"/>
<path d="M359.002 213.553L360.455 226.184C353.748 228.27 345.513 229.314 335.751 229.314C323.828 229.314 315.444 226.333 310.601 220.371C305.757 214.41 303.335 204.088 303.335 189.408C303.335 174.727 305.757 164.406 310.601 158.445C315.444 152.483 323.828 149.502 335.751 149.502C344.396 149.502 352.108 150.359 358.89 152.073L357.437 164.816C351.401 164.444 344.172 164.257 335.751 164.257C330.162 164.257 326.324 166.046 324.238 169.623C322.226 173.125 321.22 179.72 321.22 189.408C321.22 199.096 322.226 205.728 324.238 209.305C326.324 212.807 330.162 214.559 335.751 214.559C346.11 214.559 353.86 214.223 359.002 213.553ZM391.969 171.3C402.253 171.3 409.519 173.535 413.767 178.006C418.09 182.403 420.251 189.892 420.251 200.474C420.251 211.056 418.09 218.545 413.767 222.942C409.519 227.264 402.253 229.425 391.969 229.425C381.611 229.425 374.271 227.264 369.949 222.942C365.701 218.545 363.577 211.056 363.577 200.474C363.577 189.818 365.701 182.291 369.949 177.895C374.271 173.498 381.611 171.3 391.969 171.3ZM391.969 183.707C387.573 183.707 384.629 184.825 383.139 187.061C381.648 189.296 380.903 193.767 380.903 200.474C380.903 207.032 381.648 211.429 383.139 213.664C384.629 215.9 387.573 217.018 391.969 217.018C396.217 217.018 399.086 215.9 400.576 213.664C402.141 211.429 402.924 207.032 402.924 200.474C402.924 193.842 402.179 189.408 400.688 187.172C399.198 184.862 396.292 183.707 391.969 183.707ZM440.249 172.864L441.367 180.913C448.372 174.504 455.377 171.3 462.382 171.3C469.834 171.3 474.566 174.28 476.578 180.242C483.061 174.28 489.768 171.3 496.698 171.3C501.691 171.3 505.492 172.604 508.1 175.212C510.708 177.82 512.012 181.621 512.012 186.613V227.972H495.581V191.755C495.581 189.371 495.171 187.694 494.351 186.725C493.531 185.756 492.004 185.272 489.768 185.272C487.979 185.272 486.266 185.607 484.626 186.278C482.987 186.949 480.602 188.253 477.472 190.19V227.972H461.599V191.755C461.599 189.371 461.115 187.694 460.146 186.725C459.252 185.756 457.761 185.272 455.675 185.272C452.769 185.272 448.707 186.874 443.491 190.079V227.972H427.059V172.864H440.249ZM533.914 172.864L535.032 180.913C542.037 174.504 549.041 171.3 556.046 171.3C563.498 171.3 568.23 174.28 570.242 180.242C576.726 174.28 583.432 171.3 590.363 171.3C595.356 171.3 599.156 172.604 601.764 175.212C604.373 177.82 605.677 181.621 605.677 186.613V227.972H589.245V191.755C589.245 189.371 588.835 187.694 588.016 186.725C587.196 185.756 585.668 185.272 583.432 185.272C581.644 185.272 579.93 185.607 578.291 186.278C576.651 186.949 574.266 188.253 571.137 190.19V227.972H555.264V191.755C555.264 189.371 554.779 187.694 553.811 186.725C552.916 185.756 551.426 185.272 549.339 185.272C546.433 185.272 542.372 186.874 537.155 190.079V227.972H520.724V172.864H533.914ZM649.486 205.951H629.589C630.111 209.976 631.303 212.696 633.166 214.111C635.104 215.453 638.271 216.123 642.668 216.123C648.555 216.123 655.411 215.714 663.235 214.894L664.8 225.178C659.062 227.935 651.051 229.314 640.767 229.314C630.409 229.314 623.032 227.078 618.635 222.607C614.238 218.136 612.04 210.758 612.04 200.474C612.04 189.669 614.164 182.105 618.411 177.783C622.734 173.461 629.962 171.3 640.097 171.3C649.263 171.3 655.895 172.902 659.994 176.106C664.092 179.236 666.179 184.043 666.253 190.526C666.253 195.668 664.912 199.543 662.229 202.151C659.621 204.685 655.373 205.951 649.486 205.951ZM629.254 196.003H644.903C646.915 196.003 648.257 195.519 648.927 194.55C649.673 193.581 650.045 192.165 650.045 190.302C650.045 187.694 649.375 185.906 648.033 184.937C646.692 183.893 644.233 183.372 640.656 183.372C636.408 183.372 633.502 184.229 631.937 185.943C630.372 187.582 629.478 190.936 629.254 196.003ZM712.036 171.3L710.359 186.613H705.888C702.236 186.613 696.61 187.88 689.009 190.414V227.972H672.466V172.864H685.32L686.774 180.913C694.3 174.504 701.752 171.3 709.13 171.3H712.036ZM759.874 214.894L761.327 225.625C755.664 228.084 748.547 229.314 739.977 229.314C729.843 229.314 722.689 227.152 718.515 222.83C714.417 218.434 712.368 210.944 712.368 200.362C712.368 189.706 714.454 182.217 718.627 177.895C722.8 173.498 729.992 171.3 740.201 171.3C748.547 171.3 755.328 172.455 760.545 174.765L758.756 185.049C750.708 184.899 745.455 184.825 742.995 184.825C737.928 184.825 734.426 185.906 732.488 188.067C730.625 190.228 729.693 194.326 729.693 200.362C729.693 206.399 730.625 210.497 732.488 212.658C734.426 214.819 737.928 215.9 742.995 215.9C749.479 215.9 755.105 215.565 759.874 214.894ZM801.233 205.951H781.336C781.858 209.976 783.05 212.696 784.913 214.111C786.851 215.453 790.018 216.123 794.414 216.123C800.301 216.123 807.157 215.714 814.982 214.894L816.547 225.178C810.809 227.935 802.798 229.314 792.514 229.314C782.156 229.314 774.778 227.078 770.382 222.607C765.985 218.136 763.787 210.758 763.787 200.474C763.787 189.669 765.91 182.105 770.158 177.783C774.48 173.461 781.709 171.3 791.843 171.3C801.009 171.3 807.642 172.902 811.74 176.106C815.839 179.236 817.926 184.043 818 190.526C818 195.668 816.659 199.543 813.976 202.151C811.368 204.685 807.12 205.951 801.233 205.951ZM781.001 196.003H796.65C798.662 196.003 800.003 195.519 800.674 194.55C801.419 193.581 801.792 192.165 801.792 190.302C801.792 187.694 801.121 185.906 799.78 184.937C798.438 183.893 795.979 183.372 792.402 183.372C788.155 183.372 785.248 184.229 783.683 185.943C782.119 187.582 781.224 190.936 781.001 196.003Z" fill="#041B34"/>
<path d="M0 10H53.0957L60.8857 51.9177M60.8857 51.9177L85.6983 212.136H238.465L259.424 51.9177H60.8857Z" stroke="#00CDE0" stroke-width="18.6301"/>
<path d="M227.287 263.835C234.232 263.835 239.862 258.205 239.862 251.259C239.862 244.314 234.232 238.684 227.287 238.684C220.342 238.684 214.712 244.314 214.712 251.259C214.712 258.205 220.342 263.835 227.287 263.835Z" fill="#041B34" stroke="#00CDE0" stroke-width="6.52053"/>
<path d="M97.808 263.835C104.753 263.835 110.383 258.205 110.383 251.259C110.383 244.314 104.753 238.684 97.808 238.684C90.8628 238.684 85.2327 244.314 85.2327 251.259C85.2327 258.205 90.8628 263.835 97.808 263.835Z" fill="#041B34" stroke="#00CDE0" stroke-width="6.52053"/>
<path fill-rule="evenodd" clip-rule="evenodd" d="M216.842 157.178L214.389 175.808H178.383H169.068V166.493V97.0957V87.7807H178.383H225.978L223.526 106.411H187.698V157.178H216.842Z" fill="#041B34"/>
<path fill-rule="evenodd" clip-rule="evenodd" d="M105.409 140.851L98.4221 87.7807H108.054H156.958V106.411H118.572L120.496 122.221H147.643H156.958V131.536V166.493V175.808H147.643H110.011L107.558 157.178H138.328V140.851H112.246H105.409Z" fill="#041B34"/>
</svg>
