<svg width="864" height="141" viewBox="0 0 864 141" fill="none" xmlns="http://www.w3.org/2000/svg">
<path fill-rule="evenodd" clip-rule="evenodd" d="M56.5311 13.2188L56.725 13.2188H72C74.4335 13.2188 76.4063 15.1915 76.4063 17.625C76.4063 20.0585 74.4335 22.0313 72 22.0313H56.725C50.0717 22.0313 45.3467 22.0347 41.6491 22.3368C38.0029 22.6347 35.7454 23.2009 33.9566 24.1123C30.3639 25.9429 27.4429 28.8639 25.6123 32.4566C24.7009 34.2454 24.1347 36.5029 23.8368 40.1491C23.5347 43.8467 23.5313 48.5717 23.5313 55.225V85.775C23.5313 92.4283 23.5347 97.1533 23.8368 100.851C24.1347 104.497 24.7009 106.755 25.6123 108.543C27.4429 112.136 30.3639 115.057 33.9566 116.888C35.7454 117.799 38.0029 118.365 41.6491 118.663C45.3467 118.965 50.0717 118.969 56.725 118.969H87.275C93.9283 118.969 98.6533 118.965 102.351 118.663C105.997 118.365 108.255 117.799 110.043 116.888C113.636 115.057 116.557 112.136 118.388 108.543C119.299 106.755 119.865 104.497 120.163 100.851C120.465 97.1533 120.469 92.4283 120.469 85.775V70.5C120.469 68.0665 122.441 66.0938 124.875 66.0938C127.309 66.0938 129.281 68.0665 129.281 70.5V85.775V85.9688C129.281 92.3852 129.281 97.47 128.946 101.569C128.604 105.76 127.89 109.306 126.24 112.544C123.564 117.795 119.295 122.064 114.044 124.74C110.806 126.39 107.26 127.104 103.069 127.446C98.97 127.781 93.8852 127.781 87.4688 127.781H87.275H56.725H56.5312C50.1148 127.781 45.03 127.781 40.9314 127.446C36.7403 127.104 33.194 126.39 29.9558 124.74C24.7049 122.064 20.4358 117.795 17.7604 112.544C16.1104 109.306 15.396 105.76 15.0536 101.569C14.7187 97.47 14.7187 92.3852 14.7188 85.9689L14.7188 85.775V55.225L14.7188 55.0311C14.7187 48.6148 14.7187 43.53 15.0536 39.4314C15.396 35.2403 16.1104 31.694 17.7604 28.4558C20.4358 23.2049 24.7049 18.9358 29.9558 16.2604C33.194 14.6104 36.7403 13.896 40.9314 13.5536C45.03 13.2187 50.1148 13.2187 56.5311 13.2188Z" fill="#041B34"/>
<path fill-rule="evenodd" clip-rule="evenodd" d="M108.185 22.9325C110.986 20.3864 115.264 20.3864 118.065 22.9325C118.175 23.0324 118.318 23.174 118.822 23.6779C119.326 24.1818 119.467 24.3252 119.567 24.4351C122.113 27.236 122.113 31.5133 119.567 34.3143C119.467 34.4242 119.326 34.5676 118.822 35.0715L117.018 36.8751C110.696 37.0177 105.482 31.8041 105.625 25.4815L107.428 23.6779C107.932 23.174 108.076 23.0324 108.185 22.9325ZM98.2228 20.4206L76.2486 42.3948L75.9896 42.6538C73.4951 45.1476 71.8865 46.7559 70.5606 48.6003C69.3858 50.2346 68.3912 51.9913 67.5942 53.8395C66.6948 55.9254 66.1434 58.1322 65.2883 61.5542L65.2883 61.5543L65.1995 61.9097L61.8504 75.306C61.475 76.8076 61.915 78.396 63.0094 79.4904C64.1038 80.5848 65.6922 81.0248 67.1938 80.6494L80.5901 77.3003L80.9456 77.2115L80.9459 77.2114C84.3677 76.3564 86.5744 75.805 88.6603 74.9055C90.5085 74.1086 92.2652 73.114 93.8995 71.9392C95.7439 70.6133 97.3521 69.0047 99.8459 66.5103L99.846 66.5102L100.105 66.2512L125.053 41.3029L125.127 41.2289C125.523 40.8333 125.828 40.5287 126.088 40.2418C131.69 34.0797 131.69 24.6697 126.088 18.5075C125.828 18.2207 125.523 17.9161 125.127 17.5205L125.127 17.5204L125.053 17.4465L124.98 17.3728C124.584 16.977 124.279 16.6722 123.992 16.4114C117.83 10.8101 108.42 10.8101 102.258 16.4114C101.971 16.6722 101.666 16.977 101.271 17.3728L101.197 17.4465L98.2912 20.3522C98.2682 20.3748 98.2454 20.3975 98.2228 20.4206ZM98.1579 32.9483C100.189 38.1498 104.35 42.3112 109.552 44.3419L93.8736 60.0198C91.0347 62.8587 89.9485 63.9262 88.7557 64.7836C87.6374 65.5875 86.4355 66.268 85.1709 66.8133C83.8219 67.395 82.3478 67.7772 78.4528 68.7509L72.1809 70.3189L73.7489 64.047C74.7226 60.152 75.1048 58.6778 75.6865 57.3288C76.2318 56.0642 76.9123 54.8623 77.7161 53.7441C78.5736 52.5513 79.6411 51.4651 82.48 48.6262L98.1579 32.9483Z" fill="#F18890"/>
<path d="M203.024 37.4858C206.787 37.4858 210.107 37.5965 212.984 37.8178C215.935 38.0392 218.665 38.3712 221.173 38.8138C223.756 39.1827 226.301 39.7361 228.81 40.4739L227.26 55.5248C224.604 55.451 222.022 55.4141 219.513 55.4141C217.005 55.3403 214.46 55.3034 211.877 55.3034C209.295 55.2296 206.418 55.1928 203.245 55.1928C200.663 55.1928 198.486 55.4879 196.716 56.0781C195.019 56.6683 193.654 57.775 192.621 59.3981C191.662 61.0213 190.961 63.3084 190.518 66.2596C190.076 69.137 189.854 72.8259 189.854 77.3264C189.854 83.0074 190.186 87.4341 190.85 90.6066C191.588 93.7791 192.769 95.9925 194.392 97.2467C196.015 98.501 198.265 99.1281 201.142 99.1281C203.061 99.1281 204.795 99.0174 206.344 98.7961C207.967 98.501 209.406 98.1321 210.66 97.6894C211.988 97.173 213.132 96.7303 214.091 96.3614L216.193 105.436C215.234 106.912 213.685 108.572 211.545 110.416C209.48 112.187 206.897 113.736 203.799 115.064C200.7 116.319 197.122 116.946 193.064 116.946C187.309 116.946 182.55 115.618 178.787 112.962C175.099 110.232 172.369 105.953 170.598 100.124C168.901 94.2956 168.053 86.6595 168.053 77.2158C168.053 67.3294 169.159 59.5088 171.373 53.7541C173.66 47.9255 177.349 43.757 182.44 41.2485C187.604 38.74 194.465 37.4858 203.024 37.4858ZM231.798 71.461V115.396H216.525L213.759 103.666L211.877 100.013V71.461H231.798ZM260.481 60.3942V95.2547C260.407 96.9516 260.776 98.169 261.587 98.9068C262.399 99.6446 263.727 100.013 265.571 100.013C267.342 100.013 269.15 99.7552 270.994 99.2388C272.912 98.7223 275.31 97.7632 278.188 96.3614L279.516 106.654C275.679 110.121 271.879 112.703 268.117 114.4C264.354 116.097 260.444 116.946 256.386 116.946C245.688 116.946 240.339 111.818 240.339 101.563V60.3942H260.481ZM296.337 60.3942V115.396H280.512L278.077 104.33L276.085 103.002V60.3942H296.337ZM333.795 58.8448C343.681 58.8448 350.727 60.4679 354.933 63.7142C359.138 66.9605 361.241 71.7561 361.241 78.1011C361.315 83.1919 359.913 86.9177 357.035 89.2786C354.158 91.6395 349.067 92.82 341.763 92.82H311.661V82.7492H336.119C338.628 82.7492 340.214 82.3803 340.878 81.6425C341.616 80.9047 341.984 79.5767 341.984 77.6584C341.911 75.5188 341.32 74.0802 340.214 73.3424C339.107 72.6046 337.189 72.2357 334.459 72.2357C331.877 72.1619 329.885 72.457 328.483 73.121C327.155 73.785 326.233 75.1131 325.716 77.1051C325.2 79.0971 324.942 82.0852 324.942 86.0692C324.942 90.0533 325.237 93.1151 325.827 95.2547C326.491 97.3943 327.634 98.9068 329.258 99.7921C330.955 100.677 333.315 101.12 336.34 101.12C338.701 101.12 341.8 101.046 345.637 100.899C349.547 100.677 353.642 100.345 357.921 99.9028L359.802 112.076C357.441 113.257 354.822 114.179 351.945 114.843C349.141 115.507 346.227 115.987 343.202 116.282C340.177 116.577 337.152 116.724 334.127 116.724C326.749 116.724 320.847 115.691 316.42 113.626C311.993 111.56 308.784 108.424 306.792 104.219C304.874 99.9397 303.915 94.5907 303.915 88.1719C303.915 80.9416 304.911 75.1868 306.903 70.9077C308.895 66.6285 312.067 63.5667 316.42 61.7222C320.847 59.8039 326.638 58.8448 333.795 58.8448ZM390.582 58.8448C393.459 58.8448 396.521 58.9555 399.767 59.1768C403.087 59.3982 406.334 59.6564 409.506 59.9515C412.678 60.2466 415.408 60.6524 417.695 61.1688L416.367 73.121C412.752 73.121 409.1 73.121 405.411 73.121C401.796 73.0473 398.292 73.0104 394.898 73.0104C392.242 73.0104 390.25 73.0473 388.922 73.121C387.594 73.1948 386.671 73.4161 386.155 73.785C385.712 74.0802 385.491 74.6704 385.491 75.5557C385.491 76.6624 385.971 77.4002 386.93 77.7691C387.889 78.138 389.659 78.6913 392.242 79.4291L405.743 82.7492C410.539 84.0034 414.08 85.8479 416.367 88.2826C418.655 90.6435 419.798 94.2218 419.798 99.0174C419.798 103.592 418.913 107.17 417.142 109.752C415.445 112.261 412.678 114.031 408.842 115.064C405.005 116.097 400.025 116.614 393.902 116.614C391.393 116.614 387.704 116.503 382.835 116.282C377.966 116.06 372.653 115.47 366.899 114.511L368.116 102.448C369.223 102.448 370.809 102.485 372.875 102.559C375.014 102.559 377.375 102.559 379.958 102.559C382.54 102.559 385.085 102.559 387.594 102.559C391.209 102.559 393.939 102.522 395.783 102.448C397.628 102.301 398.845 102.005 399.435 101.563C400.099 101.12 400.431 100.456 400.431 99.5708C400.431 98.4641 399.878 97.7263 398.771 97.3574C397.664 96.9147 395.709 96.3245 392.906 95.5867L379.958 92.156C376.195 91.1231 373.281 89.7951 371.215 88.1719C369.223 86.5488 367.858 84.6305 367.12 82.4172C366.382 80.2038 366.013 77.6584 366.013 74.7811C366.013 71.1659 366.788 68.2147 368.337 65.9276C369.887 63.5667 372.432 61.796 375.973 60.6155C379.589 59.435 384.458 58.8448 390.582 58.8448ZM452.221 45.5646V96.4721C452.221 98.0952 452.626 99.2757 453.438 100.013C454.249 100.751 455.614 101.12 457.533 101.12H463.951L466.165 114.29C464.689 114.88 462.882 115.359 460.742 115.728C458.676 116.097 456.574 116.355 454.434 116.503C452.294 116.724 450.45 116.835 448.901 116.835C443.736 116.835 439.641 115.507 436.616 112.851C433.665 110.121 432.19 106.358 432.19 101.563L432.079 45.5646H452.221ZM466.497 60.3942V72.8997H422.672V60.9475L433.296 60.3942H466.497ZM511.616 38.7032C515.895 38.7032 520.248 38.7032 524.675 38.7032C529.175 38.7032 533.565 38.8138 537.844 39.0352C542.197 39.1827 546.181 39.4778 549.796 39.9205L548.8 54.7501H520.248C518.625 54.7501 517.371 55.1928 516.485 56.0781C515.6 56.8897 515.157 58.0332 515.157 59.5088V94.9227C515.157 96.3983 515.6 97.5787 516.485 98.4641C517.371 99.2757 518.625 99.6814 520.248 99.6814H548.8L549.796 114.511C546.181 114.88 542.197 115.175 537.844 115.396C533.565 115.544 529.175 115.618 524.675 115.618C520.248 115.691 515.895 115.728 511.616 115.728C506.525 115.728 502.393 114.216 499.221 111.191C496.048 108.166 494.462 104.219 494.462 99.3494V55.0821C494.462 50.1389 496.048 46.1917 499.221 43.2406C502.393 40.2156 506.525 38.7032 511.616 38.7032ZM496.454 69.0263H544.816V83.0812H496.454V69.0263ZM598.257 58.8448C608.881 58.8448 614.193 63.9724 614.193 74.2277V115.396H594.052V80.5358C594.052 78.7651 593.683 77.5478 592.945 76.8838C592.281 76.2197 591.064 75.8877 589.293 75.8877C587.448 75.8877 585.456 76.146 583.317 76.6624C581.251 77.1789 578.632 78.138 575.459 79.5398L574.463 69.137C578.3 65.7431 582.247 63.1978 586.305 61.5009C590.363 59.7302 594.347 58.8448 598.257 58.8448ZM573.357 60.3942L575.791 71.461L577.562 72.8997V115.396H557.42V60.3942H573.357ZM648.977 45.5646V96.4721C648.977 98.0952 649.383 99.2757 650.194 100.013C651.006 100.751 652.371 101.12 654.289 101.12H660.708L662.921 114.29C661.445 114.88 659.638 115.359 657.498 115.728C655.433 116.097 653.33 116.355 651.19 116.503C649.051 116.724 647.206 116.835 645.657 116.835C640.492 116.835 636.398 115.507 633.373 112.851C630.421 110.121 628.946 106.358 628.946 101.563L628.835 45.5646H648.977ZM663.253 60.3942V72.8997H619.428V60.9475L630.053 60.3942H663.253ZM684.59 60.3942L687.025 71.461L689.017 72.8997V115.396H668.876V60.3942H684.59ZM711.372 58.8448L709.602 77.3264H704.289C702.076 77.3264 699.641 77.5478 696.985 77.9904C694.329 78.4331 690.972 79.1709 686.915 80.2038L685.697 69.2476C689.386 65.78 693.149 63.1978 696.985 61.5009C700.896 59.7302 704.658 58.8448 708.274 58.8448H711.372ZM736.431 60.3942V115.396H716.4V60.3942H736.431ZM730.676 35.6044C734.586 35.6044 736.542 37.5965 736.542 41.5805V47.3353C736.542 51.3194 734.586 53.3114 730.676 53.3114H722.044C718.134 53.3114 716.179 51.3194 716.179 47.3353V41.5805C716.179 37.5965 718.134 35.6044 722.044 35.6044H730.676ZM774.281 58.8448C784.168 58.8448 791.213 60.4679 795.419 63.7142C799.624 66.9605 801.727 71.7561 801.727 78.1011C801.801 83.1919 800.399 86.9177 797.522 89.2786C794.644 91.6395 789.553 92.82 782.249 92.82H752.147V82.7492H776.605C779.114 82.7492 780.7 82.3803 781.364 81.6425C782.102 80.9047 782.471 79.5767 782.471 77.6584C782.397 75.5188 781.807 74.0802 780.7 73.3424C779.593 72.6046 777.675 72.2357 774.945 72.2357C772.363 72.1619 770.371 72.457 768.969 73.121C767.641 73.785 766.719 75.1131 766.202 77.1051C765.686 79.0971 765.428 82.0852 765.428 86.0692C765.428 90.0533 765.723 93.1151 766.313 95.2547C766.977 97.3943 768.121 98.9068 769.744 99.7921C771.441 100.677 773.802 101.12 776.827 101.12C779.187 101.12 782.286 101.046 786.123 100.899C790.033 100.677 794.128 100.345 798.407 99.9028L800.288 112.076C797.927 113.257 795.308 114.179 792.431 114.843C789.627 115.507 786.713 115.987 783.688 116.282C780.663 116.577 777.638 116.724 774.613 116.724C767.235 116.724 761.333 115.691 756.906 113.626C752.479 111.56 749.27 108.424 747.278 104.219C745.36 99.9397 744.401 94.5907 744.401 88.1719C744.401 80.9416 745.397 75.1868 747.389 70.9077C749.381 66.6285 752.553 63.5667 756.906 61.7222C761.333 59.8039 767.125 58.8448 774.281 58.8448ZM831.068 58.8448C833.945 58.8448 837.007 58.9555 840.253 59.1768C843.573 59.3982 846.82 59.6564 849.992 59.9515C853.165 60.2466 855.894 60.6524 858.182 61.1688L856.854 73.121C853.238 73.121 849.586 73.121 845.897 73.121C842.282 73.0473 838.778 73.0104 835.384 73.0104C832.728 73.0104 830.736 73.0473 829.408 73.121C828.08 73.1948 827.158 73.4161 826.641 73.785C826.198 74.0802 825.977 74.6704 825.977 75.5557C825.977 76.6624 826.457 77.4002 827.416 77.7691C828.375 78.138 830.146 78.6913 832.728 79.4291L846.229 82.7492C851.025 84.0034 854.566 85.8479 856.854 88.2826C859.141 90.6435 860.284 94.2218 860.284 99.0174C860.284 103.592 859.399 107.17 857.628 109.752C855.931 112.261 853.165 114.031 849.328 115.064C845.492 116.097 840.512 116.614 834.388 116.614C831.879 116.614 828.191 116.503 823.321 116.282C818.452 116.06 813.14 115.47 807.385 114.511L808.602 102.448C809.709 102.448 811.295 102.485 813.361 102.559C815.501 102.559 817.861 102.559 820.444 102.559C823.026 102.559 825.571 102.559 828.08 102.559C831.695 102.559 834.425 102.522 836.269 102.448C838.114 102.301 839.331 102.005 839.921 101.563C840.585 101.12 840.917 100.456 840.917 99.5708C840.917 98.4641 840.364 97.7263 839.257 97.3574C838.151 96.9147 836.196 96.3245 833.392 95.5867L820.444 92.156C816.681 91.1231 813.767 89.7951 811.701 88.1719C809.709 86.5488 808.344 84.6305 807.606 82.4172C806.868 80.2038 806.499 77.6584 806.499 74.7811C806.499 71.1659 807.274 68.2147 808.824 65.9276C810.373 63.5667 812.918 61.796 816.46 60.6155C820.075 59.435 824.944 58.8448 831.068 58.8448Z" fill="white"/>
</svg>
