<svg xmlns="http://www.w3.org/2000/svg" width="14" height="14" fill="none"><g stroke="currentColor" stroke-linecap="round" stroke-linejoin="round"><path d="M.96 10.268a3.132 3.132 0 0 0 2.753 2.76c1.07.12 2.167.222 3.287.222s2.218-.102 3.287-.222a3.132 3.132 0 0 0 2.753-2.76c.114-1.063.21-2.155.21-3.268s-.096-2.205-.21-3.269a3.132 3.132 0 0 0-2.753-2.76C9.217.853 8.12.75 7 .75S4.782.852 3.713.972A3.132 3.132 0 0 0 .96 3.732C.846 4.794.75 5.886.75 7s.096 2.205.21 3.268ZM4.5 9.5l5-5"/><path d="M8.981 9.92a.938.938 0 1 0 0-1.876.938.938 0 0 0 0 1.875ZM5.07 5.852a.937.937 0 1 0 0-1.875.937.937 0 0 0 0 1.875Z"/></g></svg>