<svg xmlns="http://www.w3.org/2000/svg" fill="none" viewBox="0 0 20 20"><path stroke="currentColor" stroke-linecap="round" stroke-linejoin="round" stroke-width="1.5" d="M5.6 11.524c-.2.025-.4.052-.6.08m.6-.08a35.344 35.344 0 0 1 8.8 0m-8.8 0L5.283 15m9.117-3.476c.2.025.4.052.6.08m-.6-.08L14.717 15l.19 2.102a.936.936 0 0 1-.933 1.023H6.026a.937.937 0 0 1-.933-1.023L5.283 15m0 0h-.908A1.875 1.875 0 0 1 2.5 13.125V7.88c0-.9.64-1.68 1.53-1.813.53-.079 1.062-.147 1.595-.205M14.715 15h.91a1.875 1.875 0 0 0 1.875-1.875V7.88c0-.9-.64-1.68-1.53-1.813-.53-.079-1.062-.147-1.595-.205m0 0a40.446 40.446 0 0 0-8.75 0m8.75 0v-3.05a.938.938 0 0 0-.938-.937H6.564a.938.938 0 0 0-.938.938v3.049M15 8.75h.007v.007H15V8.75Zm-2.5 0h.007v.007H12.5V8.75Z"/></svg>