<svg xmlns="http://www.w3.org/2000/svg" fill="none" viewBox="0 0 14 14" id="Transaction-Refund-Cashback--Streamline-Flex" height="14" width="14">
    <g id="transaction-refund-cashback--payment-cash-money-finance-refund-cashback-transaction">
        <path id="Vector" stroke="currentColor" stroke-linecap="round" stroke-linejoin="round" d="M2.04361 2.34274C3.14929 1.13898 4.82615 0.5 7 0.5c4.16 0 6.5 2.34 6.5 6.5s-2.34 6.5 -6.5 6.5S0.5 11.16 0.5 7c0 -0.64175 0.055688 -1.24019 0.165156 -1.79341" stroke-width="1"></path>
        <path id="Vector_2" stroke="currentColor" stroke-linecap="round" stroke-linejoin="round" d="M4.11914 2.5492c-0.61447 0.20482 -1.43376 0.20482 -2.04821 0.00002 -0.20484 -0.61449 -0.20484 -1.43378 -0.00001 -2.048243" stroke-width="1"></path>
        <path id="Vector_3" stroke="currentColor" stroke-linecap="round" stroke-linejoin="round" d="M8.59544 5.2605s-0.5998 -0.66862 -1.57263 -0.58506c-0.97283 0.08356 -1.44176 0.68123 -1.44176 1.28055 0 1.74799 3.01439 0.53661 3.01439 2.32912 0 0.92411 -1.99956 1.57642 -3.1909 0.48923M7.14201 3.5v1.16821m0 4.66358V10.5" stroke-width="1"></path>
    </g>
</svg>