<svg viewBox="0 0 32 32" xmlns="http://www.w3.org/2000/svg"><g transform="matrix(1.3333333333333333,0,0,1.3333333333333333,0,0)"><path d="M21.5,9.838V21a1,1,0,0,1-1,1H3.5a1,1,0,0,1-1-1V9.838" fill="none" stroke="currentColor" stroke-linecap="round" stroke-linejoin="round"></path><path d="M4.500 13.000 L12.500 13.000 L12.500 19.000 L4.500 19.000 Z" fill="none" stroke="currentColor" stroke-linecap="round" stroke-linejoin="round"></path><path d="M19.5,22h-5V13.5A.5.5,0,0,1,15,13h4a.5.5,0,0,1,.5.5Z" fill="none" stroke="currentColor" stroke-linecap="round" stroke-linejoin="round"></path><path d="M21.776,2.553A1,1,0,0,0,20.882,2H3.118a1,1,0,0,0-.894.553L.5,6h23Z" fill="none" stroke="currentColor" stroke-linecap="round" stroke-linejoin="round"></path><path d="M23.5,7a2.862,2.862,0,0,1-5,2,4.048,4.048,0,0,1-6.5.64A4.048,4.048,0,0,1,5.5,9a2.863,2.863,0,0,1-5-2V6h23Z" fill="none" stroke="currentColor" stroke-linecap="round" stroke-linejoin="round"></path><path d="M5.5 9L5.5 6 6.5 2" fill="none" stroke="currentColor" stroke-linecap="round" stroke-linejoin="round"></path><path d="M12 9.645L12 6 12 2" fill="none" stroke="currentColor" stroke-linecap="round" stroke-linejoin="round"></path><path d="M18.5 9L18.5 6 17.5 2" fill="none" stroke="currentColor" stroke-linecap="round" stroke-linejoin="round"></path></g></svg>